<svg width="800" height="240" viewBox="0 0 800 240" xmlns="http://www.w3.org/2000/svg">
  <!-- Background with subtle pattern -->
  <defs>
    <!-- Gradient backgrounds -->
    <linearGradient id="mainGradient" x1="0%" y1="0%" x2="100%" y2="100%">
      <stop offset="0%" style="stop-color:#1a1a1a;stop-opacity:1" />
      <stop offset="30%" style="stop-color:#2d1b2d;stop-opacity:1" />
      <stop offset="70%" style="stop-color:#3d1a1a;stop-opacity:1" />
      <stop offset="100%" style="stop-color:#1a1a1a;stop-opacity:1" />
    </linearGradient>
    
    <linearGradient id="redGlow" x1="0%" y1="0%" x2="100%" y2="0%">
      <stop offset="0%" style="stop-color:#dc2626;stop-opacity:0.8" />
      <stop offset="50%" style="stop-color:#ef4444;stop-opacity:1" />
      <stop offset="100%" style="stop-color:#dc2626;stop-opacity:0.8" />
    </linearGradient>
    
    <radialGradient id="shieldGlow" cx="50%" cy="50%" r="50%">
      <stop offset="0%" style="stop-color:#fbbf24;stop-opacity:0.3" />
      <stop offset="70%" style="stop-color:#f59e0b;stop-opacity:0.1" />
      <stop offset="100%" style="stop-color:#d97706;stop-opacity:0" />
    </radialGradient>
    
    <!-- Animated circuit pattern -->
    <pattern id="circuitPattern" x="0" y="0" width="40" height="40" patternUnits="userSpaceOnUse">
      <rect fill="none" stroke="#333" stroke-width="0.5" width="40" height="40"/>
      <circle cx="10" cy="10" r="1" fill="#666">
        <animate attributeName="opacity" values="0.3;0.8;0.3" dur="3s" repeatCount="indefinite"/>
      </circle>
      <circle cx="30" cy="30" r="1" fill="#666">
        <animate attributeName="opacity" values="0.8;0.3;0.8" dur="3s" repeatCount="indefinite"/>
      </circle>
      <line x1="10" y1="10" x2="30" y2="10" stroke="#444" stroke-width="0.5"/>
      <line x1="30" y1="10" x2="30" y2="30" stroke="#444" stroke-width="0.5"/>
    </pattern>
    
    <!-- Glitch effect -->
    <filter id="glitch">
      <feColorMatrix type="matrix" values="1 0 0 0 0  0 0 0 0 0  0 0 1 0 0  0 0 0 1 0">
        <animateTransform attributeName="values" 
          values="1 0 0 0 0  0 0 0 0 0  0 0 1 0 0  0 0 0 1 0;
                  1 0 0 0 0.05  0 0 0 0 0  0 0 1 0 0  0 0 0 1 0;
                  1 0 0 0 0  0 0 0 0 0  0 0 1 0 0  0 0 0 1 0" 
          dur="0.1s" 
          repeatCount="indefinite"/>
      </feColorMatrix>
    </filter>
    
    <!-- Shadow filters -->
    <filter id="dropShadow" x="-50%" y="-50%" width="200%" height="200%">
      <feDropShadow dx="2" dy="2" stdDeviation="3" flood-color="rgba(0,0,0,0.5)"/>
    </filter>
    
    <filter id="textGlow" x="-50%" y="-50%" width="200%" height="200%">
      <feGaussianBlur stdDeviation="3" result="coloredBlur"/>
      <feMerge> 
        <feMergeNode in="coloredBlur"/>
        <feMergeNode in="SourceGraphic"/>
      </feMerge>
    </filter>
  </defs>
  
  <!-- Main background -->
  <rect width="800" height="240" fill="url(#mainGradient)"/>
  
  <!-- Circuit pattern overlay -->
  <rect width="800" height="240" fill="url(#circuitPattern)" opacity="0.1"/>
  
  <!-- Border frame -->
  <rect x="2" y="2" width="796" height="236" fill="none" stroke="url(#redGlow)" stroke-width="2" rx="8"/>
  
  <!-- Left side: Trojan Horse Shield Icon -->
  <g transform="translate(60, 120)">
    <!-- Shield background glow -->
    <circle cx="0" cy="0" r="45" fill="url(#shieldGlow)"/>
    
    <!-- Main shield -->
    <path d="M-25,-35 L25,-35 Q30,-30 30,-20 L30,20 Q30,35 0,40 Q-30,35 -30,20 L-30,-20 Q-30,-30 -25,-35 Z" 
          fill="#1f2937" stroke="#dc2626" stroke-width="2" filter="url(#dropShadow)"/>
    
    <!-- Inner shield design -->
    <path d="M-20,-25 L20,-25 Q23,-22 23,-15 L23,15 Q23,25 0,30 Q-23,25 -23,15 L-23,-15 Q-23,-22 -20,-25 Z" 
          fill="none" stroke="#ef4444" stroke-width="1.5" opacity="0.8"/>
    
    <!-- Trojan horse silhouette -->
    <g transform="scale(0.8)">
      <!-- Horse head -->
      <path d="M-8,-10 Q-12,-15 -8,-20 Q-5,-22 0,-20 Q5,-22 8,-20 Q12,-15 8,-10 L8,-5 Q8,0 5,3 L-5,3 Q-8,0 -8,-5 Z" 
            fill="#dc2626"/>
      <!-- Horse body -->
      <rect x="-10" y="0" width="20" height="15" fill="#dc2626"/>
      <!-- Legs -->
      <rect x="-8" y="12" width="3" height="8" fill="#dc2626"/>
      <rect x="-2" y="12" width="3" height="8" fill="#dc2626"/>
      <rect x="2" y="12" width="3" height="8" fill="#dc2626"/>
      <rect x="8" y="12" width="3" height="8" fill="#dc2626"/>
      
      <!-- Horse details -->
      <circle cx="-3" cy="-12" r="1" fill="#ffffff"/>
      <circle cx="3" cy="-12" r="1" fill="#ffffff"/>
      <path d="M-2,-8 L2,-8" stroke="#ffffff" stroke-width="1"/>
    </g>
    
    <!-- Animated scan lines -->
    <line x1="-30" y1="-20" x2="30" y2="-20" stroke="#00ff41" stroke-width="1" opacity="0.7">
      <animateTransform attributeName="transform" type="translate" 
        values="0,0; 0,40; 0,0" dur="2s" repeatCount="indefinite"/>
    </line>
    <line x1="-30" y1="-15" x2="30" y2="-15" stroke="#00ff41" stroke-width="0.5" opacity="0.5">
      <animateTransform attributeName="transform" type="translate" 
        values="0,5; 0,45; 0,5" dur="2s" repeatCount="indefinite"/>
    </line>
  </g>
  
  <!-- Center: Main Title -->
  <g transform="translate(400, 90)">
    <!-- Main title shadow -->
    <text x="0" y="0" text-anchor="middle" font-family="Arial Black, sans-serif" font-size="48" font-weight="900" 
          fill="#000000" opacity="0.3" transform="translate(3,3)">TrojanHorse.js</text>
    
    <!-- Main title -->
    <text x="0" y="0" text-anchor="middle" font-family="Arial Black, sans-serif" font-size="48" font-weight="900" 
          fill="url(#redGlow)" filter="url(#textGlow)">TrojanHorse.js</text>
    
    <!-- Subtitle -->
    <text x="0" y="30" text-anchor="middle" font-family="Arial, sans-serif" font-size="16" font-weight="600" 
          fill="#e5e7eb" opacity="0.9">The only Trojan you actually want in your system</text>
    
    <!-- Feature tags -->
    <g transform="translate(0, 55)">
      <!-- Tag background -->
      <rect x="-140" y="-8" width="280" height="20" fill="rgba(239, 68, 68, 0.1)" stroke="rgba(239, 68, 68, 0.3)" stroke-width="1" rx="10"/>
      
      <text x="-120" y="5" font-family="Arial, sans-serif" font-size="12" font-weight="500" fill="#fbbf24">⚡ THREAT INTELLIGENCE</text>
      <text x="-20" y="5" font-family="Arial, sans-serif" font-size="12" font-weight="500" fill="#10b981">🛡️ SECURITY-FIRST</text>
      <text x="80" y="5" font-family="Arial, sans-serif" font-size="12" font-weight="500" fill="#3b82f6">🚀 PRODUCTION-READY</text>
    </g>
  </g>
  
  <!-- Right side: Threat Detection Visualization -->
  <g transform="translate(680, 120)">
    <!-- Radar circle -->
    <circle cx="0" cy="0" r="35" fill="none" stroke="#166534" stroke-width="2" opacity="0.6"/>
    <circle cx="0" cy="0" r="25" fill="none" stroke="#166534" stroke-width="1" opacity="0.4"/>
    <circle cx="0" cy="0" r="15" fill="none" stroke="#166534" stroke-width="1" opacity="0.3"/>
    
    <!-- Radar sweep -->
    <path d="M0,0 L0,-35 A35,35 0 0,1 24.7,-24.7 Z" fill="rgba(34, 197, 94, 0.2)">
      <animateTransform attributeName="transform" type="rotate" 
        values="0; 360" dur="4s" repeatCount="indefinite"/>
    </path>
    
    <!-- Threat indicators -->
    <circle cx="20" cy="-15" r="2" fill="#dc2626">
      <animate attributeName="opacity" values="1;0.3;1" dur="2s" repeatCount="indefinite"/>
    </circle>
    <circle cx="-10" cy="25" r="2" fill="#dc2626">
      <animate attributeName="opacity" values="0.3;1;0.3" dur="2s" repeatCount="indefinite" begin="0.5s"/>
    </circle>
    <circle cx="-25" cy="-5" r="2" fill="#f59e0b">
      <animate attributeName="opacity" values="1;0.5;1" dur="1.5s" repeatCount="indefinite"/>
    </circle>
    <circle cx="5" cy="20" r="2" fill="#f59e0b">
      <animate attributeName="opacity" values="0.5;1;0.5" dur="1.5s" repeatCount="indefinite" begin="0.7s"/>
    </circle>
    
    <!-- Data streams -->
    <g opacity="0.7">
      <line x1="-50" y1="-30" x2="-35" y2="-25" stroke="#00ff41" stroke-width="1">
        <animate attributeName="opacity" values="0;1;0" dur="1s" repeatCount="indefinite"/>
      </line>
      <line x1="50" y1="20" x2="35" y2="15" stroke="#00ff41" stroke-width="1">
        <animate attributeName="opacity" values="0;1;0" dur="1s" repeatCount="indefinite" begin="0.3s"/>
      </line>
      <line x1="-30" y1="50" x2="-20" y2="35" stroke="#00ff41" stroke-width="1">
        <animate attributeName="opacity" values="0;1;0" dur="1s" repeatCount="indefinite" begin="0.6s"/>
      </line>
    </g>
    
    <!-- Center dot -->
    <circle cx="0" cy="0" r="3" fill="#22c55e">
      <animate attributeName="r" values="3;5;3" dur="2s" repeatCount="indefinite"/>
    </circle>
  </g>
  
  <!-- Bottom: Tech Stack Icons -->
  <g transform="translate(400, 200)">
    <!-- Background bar -->
    <rect x="-200" y="-15" width="400" height="30" fill="rgba(31, 41, 55, 0.8)" stroke="rgba(239, 68, 68, 0.2)" stroke-width="1" rx="15"/>
    
    <!-- Tech icons with labels -->
    <g transform="translate(-150, 0)">
      <rect x="-12" y="-8" width="24" height="16" fill="#3178c6" rx="2"/>
      <text x="0" y="2" text-anchor="middle" font-family="Arial, sans-serif" font-size="8" font-weight="bold" fill="#ffffff">TS</text>
    </g>
    
    <g transform="translate(-100, 0)">
      <circle cx="0" cy="0" r="8" fill="#68cc40"/>
      <text x="0" y="3" text-anchor="middle" font-family="Arial, sans-serif" font-size="10" font-weight="bold" fill="#ffffff">⬢</text>
    </g>
    
    <g transform="translate(-50, 0)">
      <rect x="-8" y="-8" width="16" height="16" fill="#2496ed" rx="2"/>
      <text x="0" y="2" text-anchor="middle" font-family="Arial, sans-serif" font-size="8" font-weight="bold" fill="#ffffff">🐳</text>
    </g>
    
    <g transform="translate(0, 0)">
      <rect x="-8" y="-8" width="16" height="16" fill="#ff6b35" rx="2"/>
      <text x="0" y="2" text-anchor="middle" font-family="Arial, sans-serif" font-size="8" font-weight="bold" fill="#ffffff">🔥</text>
    </g>
    
    <g transform="translate(50, 0)">
      <rect x="-8" y="-8" width="16" height="16" fill="#326ce5" rx="2"/>
      <text x="0" y="2" text-anchor="middle" font-family="Arial, sans-serif" font-size="8" font-weight="bold" fill="#ffffff">☸</text>
    </g>
    
    <g transform="translate(100, 0)">
      <rect x="-8" y="-8" width="16" height="16" fill="#dc2626" rx="2"/>
      <text x="0" y="2" text-anchor="middle" font-family="Arial, sans-serif" font-size="8" font-weight="bold" fill="#ffffff">🛡️</text>
    </g>
    
    <g transform="translate(150, 0)">
      <rect x="-8" y="-8" width="16" height="16" fill="#0ea5e9" rx="2"/>
      <text x="0" y="2" text-anchor="middle" font-family="Arial, sans-serif" font-size="8" font-weight="bold" fill="#ffffff">☁</text>
    </g>
  </g>
  
  <!-- Corner accents -->
  <!-- Top left -->
  <path d="M0,0 L20,0 L20,2 L2,2 L2,20 L0,20 Z" fill="#dc2626" opacity="0.8"/>
  <!-- Top right -->
  <path d="M800,0 L780,0 L780,2 L798,2 L798,20 L800,20 Z" fill="#dc2626" opacity="0.8"/>
  <!-- Bottom left -->
  <path d="M0,240 L20,240 L20,238 L2,238 L2,220 L0,220 Z" fill="#dc2626" opacity="0.8"/>
  <!-- Bottom right -->
  <path d="M800,240 L780,240 L780,238 L798,238 L798,220 L800,220 Z" fill="#dc2626" opacity="0.8"/>
  
  <!-- Subtle scan lines animation -->
  <rect width="800" height="2" fill="rgba(34, 197, 94, 0.3)" opacity="0.5">
    <animateTransform attributeName="transform" type="translate" 
      values="0,-2; 0,240; 0,-2" dur="3s" repeatCount="indefinite"/>
  </rect>
</svg>